<svg width="955.45721" height="755.52207" xmlns="http://www.w3.org/2000/svg">
 <title>Booked</title>

 <g>
  <title>background</title>
  <rect fill="#b087f8" id="canvas_background" height="757.52207" width="957.45721" y="-1" x="-1"/>
 </g>
 <g>
  <title>Layer 1</title>
  <path id="svg_1" fill="#f2f2f2" d="m913.29515,315.69022c-41.62683,-163.68618 -185.46063,-281.84467 -354.29039,-286.5839c-89.25524,-2.50549 -183.17666,27.09649 -251.55837,130.68464c-122.23971,185.175 7.51191,313.13661 97.97131,373.94142a566.02666,566.02666 0 0 1 116.99555,105.15521c61.10238,72.50779 178.64943,162.60891 318.64265,21.43431c101.46726,-102.32353 99.96683,-235.60053 72.23925,-344.63168z"/>
  <path id="svg_2" fill="#3f3d56" d="m389.30496,755.17844q43.8522,-11.42184 84.32508,-19.42446l-10.36793,-34.66209c3.60728,-2.00268 19.22142,18.05548 19.22142,18.05548l-13.16148,-100.2514c18.02789,4.02068 26.38007,106.274 26.38007,106.274l20.455,-34.07034l-10.08233,38.58184c82.56516,-14.41836 153.80632,-18.89036 213.68925,-17.81842l-8.87393,-29.66713c3.60728,-2.00268 19.22141,18.05548 19.22141,18.05548l-13.16144,-100.25136c18.02789,4.02068 26.38007,106.274 26.38007,106.274l20.455,-34.07034l-10.67878,40.86449c50.18694,2.75485 91.07833,9.35092 122.62338,16.54618c-8.84482,-46.10889 -39.80325,-90.44721 -39.80325,-90.44721c23.81725,12.37724 36.19979,32.5257 42.60385,51.19931c0.96566,-56.67536 -1.54433,-161.84644 -25.63761,-278.74155c0,0 47.9715,180.46726 40.68645,300.75492l-0.928,21.36749c41.823,10.90935 62.806,21.77474 62.806,21.77474l-566.15223,-0.34363z"/>
  <path id="svg_3" fill="#3f3d56" d="m570.53879,727.34129c-0.20345,-0.33245 -5.00048,-8.34221 -6.66355,-24.97468c-1.52542,-15.25942 -0.54455,-40.98036 12.79467,-76.85895c25.27076,-67.9696 -5.82378,-122.81122 -6.14151,-123.3575l1.53408,-0.89c0.08051,0.13851 8.10413,14.121 12.844,36.38591a158.7396,158.7396 0 0 1 -6.57438,88.47969c-25.22747,67.85359 -6.47222,99.9749 -6.28,100.29176l-1.51331,0.92377z"/>
  <circle id="svg_4" fill="#6c63ff" r="11.52464" cy="486.63448" cx="560.6573"/>
  <circle id="svg_5" fill="#3f3d56" r="11.52464" cy="529.18701" cx="597.00426"/>
  <circle id="svg_6" fill="#6c63ff" r="11.52464" cy="557.55537" cx="572.18195"/>
  <circle id="svg_7" fill="#6c63ff" r="11.52464" cy="581.49117" cx="602.32332"/>
  <circle id="svg_8" fill="#3f3d56" r="11.52464" cy="618.72463" cx="563.31684"/>
  <path id="svg_9" fill="#3f3d56" d="m577.50102,727.7655s-11.52464,-28.36836 23.04929,-49.64462l-23.04929,49.64462z"/>
  <path id="svg_10" fill="#3f3d56" d="m563.32749,727.2509s-5.245,-30.16738 -45.84015,-29.90882l45.84015,29.90882z"/>
  <path id="svg_11" fill="#2f2e41" d="m739.81211,249.36953l0,0c-22.02161,0 -39.87365,19.81184 -39.87365,44.251l0,31.05019l9.54961,0l5.52869,-11.50434l-1.38219,11.50434l61.38126,0l5.02608,-10.45849l-1.2565,10.45849l6.91086,0l0,-24.38c-0.00005,-28.12296 -20.54306,-50.92119 -45.88416,-50.92119z"/>
  <path id="svg_12" fill="#a0616a" d="m702.35984,392.92604l-6.62276,25.38725l61.81242,-2.20759l-1.1038,-20.97207s-46.35931,-12.14175 -54.08586,-2.20759z"/>
  <polygon id="svg_13" fill="#a0616a" points="642.755 494.475 662.623 538.627 681.388 515.447 665.935 484.541 642.755 494.475"/>
  <polygon id="svg_14" fill="#a0616a" points="692.426 656.733 694.633 707.507 718.917 707.507 715.605 656.733 692.426 656.733"/>
  <path id="svg_15" fill="#2f2e41" d="m663.72708,448.11567l11.03793,36.42518l16.5569,176.60691s15.4531,4.41517 26.491,-1.10379l2.20759,-24.28345l4.41517,-139.07795s20.97207,-11.03793 18.76449,-26.491s-7.72656,-36.42518 -7.72656,-36.42518l-71.74652,14.34928z"/>
  <path id="svg_16" fill="#2f2e41" d="m697.94467,695.36535l-6.62276,0s-18.76449,19.86828 -25.38725,22.07586s-40.84034,20.97207 -13.24552,24.28345s45.25553,-11.03793 45.25553,-11.03793s8.83034,5.519 20.97207,1.10379s5.519,-17.66069 5.519,-17.66069s-6.16366,-20.18748 -6.39321,-20.02788s-6.85235,10.09374 -20.09786,1.2634z"/>
  <circle id="svg_17" fill="#a0616a" r="25.38724" cy="292.48083" cx="732.16225"/>
  <path id="svg_18" fill="#a0616a" d="m769.69122,325.59463l-11.67815,9.73546l-1.56737,1.30247l-1.10379,13.24548l-43.04793,0s5.87218,-5.08847 11.32493,-10.35359c0.11035,-0.1214 0.23175,-0.25385 0.36427,-0.37531c0.73952,-0.71743 1.40177,-1.37975 1.99786,-1.97577c0.32008,-0.33112 0.6291,-0.64022 0.905,-0.92722c0.45259,-0.47462 0.89414,-0.92714 1.33561,-1.37974a0.03829,0.03829 0 0 0 0.011,-0.022a43.07931,43.07931 0 0 0 3.17893,-3.73082l0.011,-0.011a12.81636,12.81636 0 0 0 0.73952,-1.09275c3.31138,-5.519 -4.41517,-16.5569 -4.41517,-16.5569l24.28345,-12.14172c0.84994,11.96508 10.97171,19.95653 15.49723,22.95888c1.32472,0.87194 2.16361,1.32453 2.16361,1.32453z"/>
  <path id="svg_19" fill="#a0616a" d="m829.29605,511.03189c-16.55689,4.41517 -17.66069,-28.69863 -17.66069,-28.69863l-22.59765,-45.1953a104.51563,104.51563 0 0 1 -9.73594,-30.31979l-5.19537,-32.65664l-1.57842,1.88744l0,0.011l-2.83676,1.41289l-17.24124,-27.59482l-4.83462,-7.72655l0,-8.83035l16.5569,-7.72655l6.62276,0s0.14349,-0.0221 0.39735,-0.04419c3.04648,-0.32008 22.87063,-1.64465 23.8861,17.70488c0.39969,7.59414 0.36519,13.8857 0.15853,18.82226a145.76235,145.76235 0 0 0 3.84972,40.63178c1.16857,4.79412 2.44344,8.95771 3.7183,11.18872c4.41517,7.72656 19.86828,68.43518 19.86828,68.43518s23.17965,24.28349 6.62275,28.69867z"/>
  <path id="svg_20" fill="#a0616a" d="m727.74708,337.73635l-4.18335,7.62719l-2.47255,4.51454l-12.10857,22.07586s-3.43278,2.80361 -8.99594,6.42409c-9.2498,6.01562 -24.4159,14.272 -39.571,15.65178c-24.28345,2.20758 -1.1038,-76.16173 -1.1038,-76.16173s7.72656,-30.90621 18.76449,-27.59483s2.20758,14.34931 -5.519,35.32138s-1.10379,44.15173 -1.10379,44.15173s23.17966,-14.34931 35.32138,-25.38725c6.32471,-5.75078 11.75543,-7.3071 15.49723,-7.4727l0.011,0a14.05466,14.05466 0 0 1 3.69775,0.287a8.35114,8.35114 0 0 1 1.76615,0.56294z"/>
  <path id="svg_21" fill="#d0cde1" d="m731.41168,331.1136c-0.04412,0.1214 -0.56294,1.10379 -4.52559,5.13259a53.27088,53.27088 0 0 0 4.52559,-5.13259z"/>
  <path id="svg_22" fill="#d0cde1" d="m773.5545,374.71343l-1.02652,1.34659l-16.08228,27.90393s-20.97207,-7.72656 -36.42517,-9.93414a21.64728,21.64728 0 0 0 -22.06482,9.901l4.40413,-17.62754l-2.37318,-7.92523c-0.276,-0.92722 -0.596,-1.95374 -0.9382,-3.11271c-3.31138,-11.03793 8.83034,-23.17965 8.83034,-23.17965l14.39344,-15.19926l0.011,0a14.05466,14.05466 0 0 1 3.69775,0.287c-0.59609,0.596 -1.25834,1.25834 -1.99786,1.97577c-0.13252,0.12146 -0.25392,0.25391 -0.36427,0.37531c-4.22755,4.31581 -2.031,5.519 -0.05518,5.83905a9.7208,9.7208 0 0 0 1.97577,0.09937c4.60279,0.66225 14.68043,-3.37761 22.07586,-6.75521c5.03329,-2.29591 8.83034,-4.28272 8.83034,-4.28272l9.6361,-8.83035l1.446,-1.32457c1.32457,0.872 2.16346,1.32457 2.16346,1.32457l1.1038,0s0.14349,-0.0221 0.39735,-0.04419l-5.02587,3.72943a18.68467,18.68467 0 0 0 -7.51321,16.183l0,0l14.90122,29.25055z"/>
  <path id="svg_23" fill="#2f2e41" d="m713.39777,406.17153l-16.13716,6.30165s-87.61937,-33.89648 -100.86489,-6.30165s46.35932,93.82242 46.35932,93.82242l26.491,-12.14172l-11.03793,-33.1138s64.02,54.08587 90.511,24.28345s8.83035,-71.94211 8.83035,-71.94211s-16.55685,-13.04996 -44.15169,-0.90824z"/>
  <path id="svg_24" fill="#2f2e41" d="m667.03846,526.48499l-9.93414,7.72655s8.83034,35.32138 5.519,40.84035s-9.93414,20.97207 2.20759,19.86828s25.38724,-19.86828 26.491,-26.491s8.83034,-26.491 8.83034,-26.491s13.24552,-30.9062 3.31138,-32.01s-25.75662,-1.84255 -25.75662,-1.84255l-10.66855,18.39937z"/>
  <path id="svg_25" fill="#2f2e41" d="m751.14747,261.55921a20.91184,20.91184 0 0 0 -16.50006,-8.42011l-0.7828,0c-15.09366,0 -27.32942,13.658 -27.32942,30.50606l0,0.00007l5.05742,0l0.81677,-6.217l1.19755,6.217l29.99568,0l2.51306,-5.25968l-0.62828,5.25968l5.901,0q4.13041,20.51274 -11.86948,41.02547l10.05222,0l5.02608,-10.51935l-1.25651,10.51935l19.162,0l3.76958,-24.19457c0.00001,-18.1195 -10.52795,-33.48447 -25.12481,-38.91692z"/>
  <path id="svg_26" fill="#3f3d56" d="m570.16418,47.21735l0,-47.21731l-16.66494,0l0,47.21735l-245.345,0l0,-47.21735l-16.665,0l0,47.21735l-101.84134,0l0,257.38081l482.35763,0l0,-257.38085l-101.84135,0zm-270.34246,60.179a25.92277,25.92277 0 0 1 -8.33248,-50.47l0,37.50839l16.665,0l0,-37.50843a25.92276,25.92276 0 0 1 -8.33247,50.47l-0.00005,0.00004zm262.01,0a25.92276,25.92276 0 0 1 -8.33247,-50.47l0,37.50839l16.66494,0l0,-37.50843a25.92276,25.92276 0 0 1 -8.33247,50.47l0,0.00004z"/>
  <rect id="svg_27" fill="#d0cde1" height="62.95647" width="83.32473" y="133.78249" x="212.79366"/>
  <rect id="svg_28" fill="#d0cde1" height="62.95647" width="83.32473" y="133.78249" x="330.37411"/>
  <rect id="svg_29" fill="#d0cde1" height="62.95647" width="83.32473" y="133.78249" x="447.95457"/>
  <rect id="svg_30" fill="#d0cde1" height="62.95647" width="83.32473" y="133.78249" x="565.53503"/>
  <rect id="svg_31" fill="#d0cde1" height="62.95647" width="83.32473" y="215.25556" x="212.79366"/>
  <rect id="svg_32" fill="#d0cde1" height="62.95647" width="83.32473" y="215.25556" x="330.37411"/>
  <rect id="svg_33" fill="#d0cde1" height="62.95647" width="83.32473" y="215.25556" x="447.95457"/>
  <rect id="svg_34" fill="#d0cde1" height="62.95647" width="83.32473" y="215.25556" x="565.53503"/>
  <polygon id="svg_35" fill="#6c63ff" points="489.24 179.428 463.196 143.462 470.291 138.326 490.226 165.857 566.513 87.481 572.789 93.59 489.24 179.428"/>
  <polygon id="svg_36" fill="#6c63ff" points="369.808 266.456 343.764 230.49 350.858 225.354 370.794 252.885 447.081 174.509 453.356 180.618 369.808 266.456"/>
  <polygon id="svg_37" fill="#f2f2f2" points="133.157 273.11 114.079 265.581 95 258.053 111.059 245.295 127.118 232.536 130.138 252.823 133.157 273.11"/>
  <polygon id="svg_38" fill="#f2f2f2" points="251.157 639.11 232.079 631.581 213 624.053 229.059 611.295 245.118 598.536 248.138 618.823 251.157 639.11"/>
  <polygon id="svg_39" fill="#f2f2f2" points="38.157 384.11 19.079 376.581 0 369.053 16.059 356.295 32.118 343.536 35.138 363.823 38.157 384.11"/>
  <polygon id="svg_40" fill="#f2f2f2" points="141.102 454.866 123.083 464.663 105.065 474.461 105.589 453.958 106.113 433.454 123.608 444.16 141.102 454.866"/>
  <polygon id="svg_41" fill="#f2f2f2" points="348.102 558.866 330.083 568.663 312.065 578.461 312.589 557.958 313.113 537.454 330.608 548.16 348.102 558.866"/>
 </g>
</svg>